<?xml version="1.0" standalone="no"?>
<!DOCTYPE svg PUBLIC "-//W3C//DTD SVG 20010904//EN"
 "http://www.w3.org/TR/2001/REC-SVG-20010904/DTD/svg10.dtd">
<svg version="1.0" xmlns="http://www.w3.org/2000/svg"
 width="700.000000pt" height="700.000000pt" viewBox="0 0 700.000000 700.000000"
 preserveAspectRatio="xMidYMid meet">
<metadata>
Created by potrace 1.11, written by Peter Selinger 2001-2013
</metadata>
<g transform="translate(0.000000,700.000000) scale(0.100000,-0.100000)"
fill="#000000" stroke="none">
<path d="M320 6989 c-152 -30 -281 -162 -310 -318 -14 -74 -14 -6268 0 -6342
30 -158 161 -289 319 -319 74 -14 6268 -14 6342 0 159 30 290 162 319 320 7
37 9 1100 8 3205 -3 2992 -4 3152 -21 3195 -43 110 -130 199 -240 244 l-52 21
-3160 1 c-1780 1 -3179 -2 -3205 -7z m2696 -596 c66 -22 145 -101 167 -167 48
-141 -8 -286 -137 -354 l-51 -27 -805 -5 -805 -5 -57 -28 c-64 -32 -111 -80
-142 -146 -21 -45 -21 -59 -26 -851 l-5 -805 -27 -51 c-111 -211 -408 -205
-509 10 l-29 61 0 937 c0 637 3 954 11 990 42 207 224 393 431 444 41 9 266
12 994 13 855 1 945 -1 990 -16z m2936 6 c29 -6 90 -29 135 -50 153 -73 278
-233 312 -397 8 -36 11 -353 11 -991 l0 -938 -31 -61 c-52 -105 -142 -162
-254 -162 -108 0 -202 57 -253 154 l-27 51 -5 805 -5 805 -28 57 c-32 64 -80
111 -146 142 -45 21 -59 21 -851 26 l-805 5 -49 25 c-174 89 -210 317 -71 456
88 88 15 82 1077 83 640 1 954 -2 990 -10z m-1249 -1488 c89 -43 166 -119 208
-208 27 -56 34 -83 37 -154 9 -188 -77 -333 -247 -417 -72 -36 -79 -37 -181
-37 -102 0 -109 1 -181 37 -296 146 -336 536 -76 734 26 20 76 47 110 60 53
21 77 24 162 21 89 -3 107 -6 168 -36z m-3730 -1727 c60 -20 129 -82 159 -142
l23 -47 5 -805 5 -805 29 -58 c31 -64 99 -126 163 -149 56 -19 4230 -19 4286
0 64 23 132 85 163 149 l29 58 5 805 5 805 23 47 c47 95 150 158 257 158 80 0
143 -26 201 -85 90 -90 85 -16 82 -1111 l-3 -959 -22 -59 c-66 -175 -201 -309
-371 -368 l-67 -23 -2445 0 -2445 0 -67 23 c-170 59 -305 193 -371 368 l-22
59 -3 959 c-3 1095 -8 1021 82 1112 31 30 69 57 96 67 59 20 145 21 203 1z
m2022 -96 c15 -12 199 -235 408 -496 l380 -475 18 24 c264 356 480 637 501
653 36 26 109 26 146 0 44 -32 641 -834 648 -871 3 -18 3 -44 0 -58 -11 -42
-66 -95 -111 -105 -53 -13 -2907 -13 -2960 0 -85 19 -135 115 -98 187 28 57
896 1137 924 1150 41 20 113 16 144 -9z"/>
</g>
</svg>
